<?xml version="1.0" encoding="UTF-8" standalone="no"?>
<svg
   width="369.44022pt"
   height="369.99982pt"
   viewBox="0 0 369.44022 369.99982"
   version="1.1"
   id="svg1"
   xmlns="http://www.w3.org/2000/svg"
   xmlns:svg="http://www.w3.org/2000/svg">
  <defs
     id="defs1" />
  <g
     transform="matrix(0.1,0,0,-0.1,-225.23183,440.95716)"
     fill="#381717"
     stroke="none"
     id="g22">
    <path
       d="m 4065,4392 c -32,-36 -162,-227 -160,-232 2,-3 48,-2 102,1 54,4 141,4 193,0 52,-4 97,-6 98,-5 5,3 -159,237 -172,246 -19,13 -46,9 -61,-10 z"
       id="path2" />
    <path
       d="m 3875,4079 c -102,-16 -226,-49 -332,-91 -57,-22 -103,-43 -103,-46 -1,-43 -24,-152 -41,-197 -49,-133 -197,-310 -337,-404 -100,-68 -213,-110 -292,-111 -19,0 -41,-4 -48,-8 -19,-13 -78,-171 -106,-286 -39,-156 -49,-263 -43,-436 8,-208 53,-412 123,-552 23,-46 25,-47 81,-53 247,-30 513,-250 620,-516 13,-33 27,-77 29,-97 14,-108 10,-102 78,-132 282,-128 666,-155 991,-70 85,22 242,83 259,100 5,5 13,39 17,75 16,130 83,255 208,387 136,143 278,226 431,251 l 75,13 32,74 c 151,353 151,782 1,1162 -33,85 -31,83 -125,92 -122,12 -264,95 -403,236 -136,138 -201,258 -219,401 -5,40 -15,76 -23,80 -30,19 -210,80 -308,105 -92,23 -129,26 -305,29 -110,2 -227,0 -260,-6 z m 328,-1084 c 181,-47 309,-186 339,-369 48,-289 -219,-556 -508,-508 -196,32 -344,180 -376,377 -51,305 247,578 545,500 z"
       id="path4" />
    <path
       d="m 3995,2927 c -113,-38 -191,-105 -239,-207 -28,-59 -31,-74 -31,-160 0,-86 3,-101 31,-160 39,-83 101,-145 184,-184 59,-28 74,-31 160,-31 87,0 101,3 160,32 83,41 142,100 183,182 29,60 32,74 32,161 0,87 -3,101 -32,161 -66,134 -182,210 -328,216 -48,2 -96,-2 -120,-10 z"
       id="path6" />
    <path
       d="m 2609,4044 c -15,-18 -6,-61 99,-474 l 67,-265 35,3 c 129,13 350,177 457,340 43,64 81,152 90,208 l 5,31 -346,86 c -190,48 -357,87 -370,87 -13,0 -29,-7 -37,-16 z"
       id="path8" />
    <path
       d="m 5178,3973 c -244,-62 -338,-89 -338,-100 0,-31 43,-138 83,-204 101,-170 334,-348 472,-361 l 30,-3 90,358 c 98,389 98,390 34,394 -19,1 -186,-37 -371,-84 z"
       id="path10" />
    <path
       d="m 2380,2679 c -63,-44 -119,-87 -123,-96 -17,-29 10,-59 119,-134 59,-41 113,-77 118,-81 8,-4 11,56 11,193 0,109 -2,199 -5,198 -3,0 -57,-36 -120,-80 z"
       id="path12" />
    <path
       d="m 5695,2565 c 0,-107 3,-195 7,-195 4,0 57,34 119,76 120,83 143,112 115,143 -15,16 -230,171 -238,171 -2,0 -3,-88 -3,-195 z"
       id="path14" />
    <path
       d="m 2686,1466 c -53,-215 -85,-362 -81,-375 3,-12 16,-23 28,-26 12,-3 180,34 372,83 l 350,87 -3,39 c -2,22 -16,68 -32,104 -83,182 -273,359 -453,422 -97,34 -82,63 -181,-334 z"
       id="path16" />
    <path
       d="m 5345,1806 c -173,-55 -367,-230 -457,-411 -32,-65 -54,-144 -42,-155 5,-5 166,-48 357,-96 289,-72 353,-85 373,-75 14,6 24,19 24,30 0,22 -167,697 -176,712 -7,12 -30,10 -79,-5 z"
       id="path18" />
    <path
       d="m 3908,955 c 16,-30 137,-203 155,-222 41,-46 57,-34 166,125 39,57 71,104 71,105 0,1 -90,2 -199,2 -130,0 -197,-3 -193,-10 z"
       id="path20" />
  </g>
  <g
     fill="#822e2e"
     id="g1">
    <path
       style="fill:#ff0000;stroke-width:0.570156"
       d="M 15.566577,197.80223 C 5.5335154,190.87594 0.43587178,186.39178 0.43587178,184.49245 c 0,-0.84747 0.97782112,-2.18676 2.76497752,-3.78714 4.108041,-3.67869 20.4990537,-14.87109 21.1705787,-14.45607 0.637292,0.39387 0.715645,33.00955 0.08607,35.82916 l -0.360159,1.61302 z"
       id="path453" />
    <path
       style="stroke-width:0.570156"
       d="m 181.73454,367.79446 c -1.70346,-1.82355 -7.49569,-9.84087 -12.49375,-17.29324 -1.81044,-2.69946 -2.79558,-4.68303 -2.48171,-4.9969 0.29869,-0.29869 8.34703,-0.45632 18.88675,-0.36991 l 18.36627,0.15058 -6.42954,9.34655 c -7.35535,10.69239 -10.99712,14.88507 -12.92917,14.88507 -0.72249,0 -2.03169,-0.77243 -2.91885,-1.72215 z"
       id="path524" />
    <path
       style="stroke-width:0.570156"
       d="m 344.81004,184.47362 v -19.16774 l 4.70379,3.2791 c 9.39493,6.54939 19.13236,13.95075 19.45289,14.78602 0.96398,2.5121 -2.67764,6.09977 -13.95374,13.74703 -4.20048,2.8487 -8.21452,5.48182 -8.92009,5.85139 l -1.28285,0.67195 z"
       id="path526" />
    <path
       style="stroke-width:0.570156"
       d="m 167.03437,24.572294 c -1.03233,-0.255278 -0.66343,-1.010562 3.52907,-7.225434 7.09033,-10.5105732 11.29803,-16.0207825 12.73305,-16.67462104 2.85696,-1.30172148 4.06389,-0.0495645 14.79333,15.34771704 2.51297,3.606236 4.84139,7.069933 5.17426,7.697105 0.59918,1.128912 0.42687,1.140311 -17.23582,1.140311 -9.81258,0 -18.35982,-0.128285 -18.99389,-0.285078 z"
       id="path528" />
    <path
       style="stroke-width:0.570156"
       d="m 36.775578,333.1756 c -0.544522,-0.60169 -0.99004,-1.79943 -0.99004,-2.66163 0,-3.71742 12.348955,-55.69635 15.386791,-64.76573 1.308928,-3.90777 3.019594,-6.27172 4.538517,-6.27172 1.256236,0 8.866734,2.97373 13.238034,5.17263 6.822461,3.43191 13.772448,8.67157 20.727663,15.62679 10.048898,10.0489 16.873457,20.77767 19.359457,30.43468 1.77464,6.89366 3.77218,5.77305 -21.651352,12.1464 -21.564717,5.40601 -42.652558,10.33275 -47.330674,11.05787 -1.826924,0.28317 -2.487992,0.1341 -3.278396,-0.73929 z"
       id="path668" />
    <path
       style="stroke-width:0.570156"
       d="m 322.28888,332.75948 c -11.9473,-2.54322 -57.63012,-14.19667 -61.66254,-15.72979 -1.35554,-0.51537 -1.4501,-0.7585 -1.11358,-2.86299 2.1625,-13.52354 16.17198,-32.83519 32.02826,-44.14999 7.50684,-5.35677 18.99369,-10.54019 23.35787,-10.54019 1.80573,0 1.82776,0.0352 3.3019,5.27395 1.83917,6.53597 11.49811,45.38792 14.34768,57.7118 l 2.10552,9.10602 -1.51056,1.29933 c -1.85043,1.59167 -2.91936,1.58102 -10.85455,-0.10814 z"
       id="path670" />
    <path
       style="stroke-width:0.570156"
       d="m 310.94142,109.19851 c -7.83609,-1.92411 -19.29475,-9.01332 -28.92727,-17.896647 -9.39542,-8.66466 -16.09266,-18.315329 -20.45741,-29.47892 -3.25639,-8.328774 -3.2638,-8.298089 2.4337,-10.079193 12.32184,-3.851949 53.44027,-14.12156 64.29101,-16.05712 2.66297,-0.475021 5.00781,0.476746 5.44263,2.20914 0.56878,2.266235 -1.68909,12.648741 -9.37767,43.121958 -8.25637,32.723602 -6.85992,29.787892 -13.40499,28.180782 z"
       id="path672" />
    <path
       style="stroke-width:0.570156"
       d="m 52.320059,109.85471 c 0,-0.21889 -3.452315,-14.17314 -7.671811,-31.009455 -6.594151,-26.311493 -9.432866,-38.545317 -9.432866,-40.652202 0,-1.108425 2.374133,-2.787796 3.941117,-2.787796 2.767946,0 70.280771,16.446095 71.172191,17.337516 0.78342,0.783414 -1.78278,9.007914 -4.6459,14.889809 C 101.931,75.3401 98.293271,80.521993 91.968821,87.167915 80.550251,99.166873 65.175415,108.74179 55.500949,109.87883 c -1.74949,0.20562 -3.18089,0.19476 -3.18089,-0.0241 z"
       id="path674" />
    <path
       style="stroke-width:0.570156"
       d="m 178.00479,221.83653 c -5.02855,-0.53091 -12.12332,-3.8108 -17.1881,-7.94598 -5.86608,-4.78942 -11.31301,-13.53569 -12.75478,-20.48069 -0.38495,-1.85427 -0.55065,-6.18558 -0.40496,-10.58493 0.21649,-6.53673 0.43793,-7.89103 1.81266,-11.08609 4.83021,-11.22602 13.25832,-19.19876 24.13314,-22.82924 4.83143,-1.61293 14.68896,-1.65005 20.83387,-0.0785 10.85261,2.77563 18.91566,9.56373 24.38911,20.5326 2.03173,4.07163 2.43397,5.50054 2.87704,10.22042 0.29671,3.16063 0.30678,7.73905 0.0238,10.79871 -0.4182,4.52101 -0.83835,6.00626 -2.82257,9.97772 -4.39306,8.79281 -9.93852,14.33921 -18.72704,18.73017 -6.13577,3.06559 -12.12169,3.80687 -22.17214,2.74576 z"
       id="path818" />
    <path
       style="stroke-width:0.570156"
       d="M 15.579658,197.33381 C 5.2975757,190.04231 1.0060277,186.26776 1.0060277,184.51587 c 0,-0.88164 0.9010023,-2.13641 2.6215813,-3.65093 2.7134399,-2.38847 14.506284,-10.74375 18.488034,-13.09887 l 2.266776,-1.34074 v 17.98415 c 0,9.89129 -0.20049,18.10807 -0.445535,18.25952 -0.245044,0.15144 -4.005796,-2.2494 -8.357226,-5.33519 z"
       id="path820" />
    <path
       style="stroke-width:0.570156"
       d="m 181.55426,366.91339 c -2.56514,-2.8903 -11.44911,-15.41635 -13.21675,-18.63508 l -1.48729,-2.70824 h 18.30844 18.30845 l -3.83937,5.55902 c -6.08693,8.81329 -11.57137,16.01478 -12.91093,16.95305 -1.90702,1.33572 -3.19952,1.04311 -5.16255,-1.16875 z"
       id="path822" />
    <path
       style="stroke-width:0.570156"
       d="m 166.9214,24.012939 c 0,-0.796267 9.66908,-15.0398744 12.93859,-19.0599506 3.49883,-4.30204232 4.25595,-4.7769761 6.06867,-3.806837 1.94673,1.0418631 16.91256,21.3496716 16.91256,22.9494276 0,0.262194 -8.08197,0.476715 -17.95992,0.476715 -11.36198,0 -17.9599,-0.20549 -17.9599,-0.559355 z"
       id="path824" />
    <path
       style="stroke-width:0.570156"
       d="m 344.81004,184.43545 v -18.59564 l 1.56792,1.00193 c 8.39332,5.36342 22.37592,16.29643 22.37742,17.49691 0.002,1.60506 -3.21756,4.78887 -9.33843,9.23475 -5.95907,4.32837 -13.70328,9.4577 -14.27913,9.4577 -0.18028,0 -0.32778,-8.36805 -0.32778,-18.59565 z"
       id="path826" />
    <path
       style="fill:#000000;stroke-width:0.0501206"
       d=""
       id="path1"
       transform="scale(0.75)" />
    <path
       style="fill:#555555;fill-opacity:1;stroke-width:0.0501206"
       d="m 27.140289,268.11562 c -2.687715,-1.85854 -5.675361,-3.92602 -6.639212,-4.59439 -8.422067,-5.84017 -13.716332,-9.95976 -16.9198835,-13.16573 -2.4108446,-2.41267 -3.20831875,-3.76634 -2.88137542,-4.89099 0.26918676,-0.92597 1.03452292,-1.98532 2.48165222,-3.43502 0.9826572,-0.9844 1.532039,-1.46623 3.1337216,-2.7484 6.2806891,-5.02782 21.1599591,-15.21635 25.1354661,-17.21143 0.753193,-0.37799 1.016327,-0.45278 1.073044,-0.30497 0.01944,0.0507 0.01714,0.0983 -0.0051,0.10592 -0.120562,0.0411 -3.851125,2.2792 -4.726732,2.83567 -6.584128,4.18439 -19.8084981,13.64618 -23.0053425,16.4599 -0.829046,0.72969 -1.9425207,1.88039 -2.3912657,2.47122 -0.9098894,1.19797 -1.2201925,2.11199 -0.9876313,2.90912 0.4066005,1.39367 2.3203665,3.4829 6.010227,6.56126 5.6132345,4.68298 18.6325065,13.97819 23.2052985,16.56759 0.965272,0.5466 1.28356,0.66449 1.347088,0.49894 0.08948,-0.23319 0.200723,-1.73804 0.281537,-3.80854 0.19958,-5.11339 0.259499,-10.86849 0.294312,-28.268 0.02679,-13.3917 0.04308,-16.04498 0.09567,-15.5875 0.2965,2.5792 0.452412,9.13471 0.496484,20.87522 0.047,12.52102 -0.116355,21.95794 -0.435971,25.18559 -0.0613,0.61904 -0.554988,2.9336 -0.62451,2.92789 -0.02789,-0.002 -2.249749,-1.5248 -4.937465,-3.38335 z"
       id="path3"
       transform="scale(0.75)" />
    <path
       style="fill:#555555;fill-opacity:1;stroke-width:0.0501206"
       d="M 31.324608,269.9835 C 29.645949,269.166 24.740697,265.91919 19.27038,262.00476 9.1967017,254.79626 3.8961226,250.39917 2.0856528,247.74918 c -0.5078269,-0.74331 -0.7073371,-1.239 -0.7073371,-1.75742 0,-1.33163 1.6686057,-3.4065 4.6612131,-5.79612 4.0143852,-3.20551 12.5893022,-9.34984 19.0959372,-13.68314 2.374722,-1.58152 3.386093,-2.21947 5.513263,-3.4776 l 1.829401,-1.08201 0.015,11.33028 c 0.02652,20.03413 -0.125227,32.27847 -0.4454,35.93948 -0.06604,0.7551 -0.105747,0.94799 -0.198847,0.96592 -0.04066,0.008 -0.276588,-0.0845 -0.524273,-0.20507 z"
       id="path5"
       transform="scale(0.75)" />
    <path
       style="fill:#555555;fill-opacity:1;stroke-width:0.0501206"
       d="m 31.651141,271.18594 c -0.206748,-0.14513 -1.029978,-0.71254 -1.829401,-1.2609 -5.863221,-4.02187 -12.467345,-8.62611 -14.835689,-10.34311 -6.9341001,-5.02706 -11.5636309,-9.00874 -13.4272541,-11.54827 -1.19677248,-1.63082 -1.17047287,-2.58329 0.1179531,-4.27178 1.076727,-1.41107 2.6986385,-2.92751 5.3401299,-4.99288 6.8119331,-5.32623 20.4357071,-14.62146 24.3234271,-16.59539 0.850199,-0.43167 1.162883,-0.52982 1.162883,-0.36502 0,0.0413 -0.01964,0.0752 -0.04364,0.0752 -0.0543,0 -3.939044,2.32928 -4.893238,2.93397 -4.273685,2.70834 -13.09697,8.89305 -18.7827882,13.16587 -3.0423352,2.28627 -4.4821242,3.49715 -5.5980844,4.70803 -1.6080282,1.7448 -2.129421,2.94669 -1.7416928,4.01487 0.6517074,1.79544 3.4580384,4.54844 9.1316914,8.95816 7.759851,6.03117 20.209396,14.58545 21.22707,14.58545 0.197529,0 0.223393,-0.0731 0.292705,-0.82699 0.317053,-3.44866 0.425651,-11.19042 0.489859,-34.92151 0.01691,-6.25066 0.04696,-11.36484 0.06676,-11.36484 0.07398,0 0.216832,2.93211 0.301572,6.18989 0.160153,6.15701 0.195605,26.34958 0.05566,31.70126 -0.09827,3.75788 -0.195553,6.04174 -0.3085,7.24243 -0.07538,0.80128 -0.555079,3.18512 -0.640129,3.18106 -0.01837,-8.8e-4 -0.202548,-0.12034 -0.409295,-0.26548 z"
       id="path7"
       transform="scale(0.75)" />
    <path
       style="fill:#555555;fill-opacity:1;stroke-width:0.0501206"
       d="m 29.947041,270.01768 c -2.666909,-1.8364 -7.988184,-5.51724 -9.798572,-6.77788 -8.350552,-5.81479 -13.3673427,-9.73027 -16.5409288,-12.90978 -1.7171269,-1.72033 -2.5403372,-2.81015 -2.85548138,-3.78027 -0.1232355,-0.37936 -0.0857791,-0.97751 0.0878408,-1.40276 0.50398168,-1.23439 2.13610598,-3.06867 4.42276028,-4.97057 4.9055511,-4.08014 17.5804681,-12.95641 24.2055241,-16.95119 1.293319,-0.77985 2.672897,-1.49182 2.890671,-1.49182 0.178391,0 0.191764,0.11266 0.02253,0.18977 -0.227326,0.10357 -4.108292,2.4467 -5.04061,3.04326 -5.217379,3.33841 -15.419931,10.55176 -20.3740116,14.40471 -1.5370353,1.1954 -2.4210669,1.95326 -3.264036,2.79818 -1.9872737,1.99186 -2.671176,3.34548 -2.2738075,4.50045 0.7895611,2.2949 5.4027685,6.39164 15.3865361,13.66395 7.20691,5.24961 14.264011,9.91639 14.995564,9.91639 0.189237,0 0.216766,-0.0823 0.285342,-0.8528 0.317398,-3.56629 0.42251,-10.97682 0.484482,-34.15642 0.01776,-6.64348 0.04139,-12.08846 0.0525,-12.09994 0.04713,-0.0487 0.06138,0.0659 0.114752,0.92305 0.266972,4.2873 0.379494,12.80214 0.341103,25.8121 -0.01497,5.0722 -0.05105,10.12435 -0.08018,11.227 -0.09641,3.64879 -0.196706,5.97936 -0.308449,7.16725 -0.07686,0.81705 -0.553509,3.18512 -0.640302,3.18112 -0.01827,-8.4e-4 -0.96922,-0.64605 -2.113222,-1.4338 z"
       id="path9"
       transform="scale(0.75)" />
    <path
       style="fill:#555555;fill-opacity:1;stroke-width:0.0501206"
       d="m 32.146575,272.11222 c -0.195457,-0.15143 -1.35961,-0.9497 -5.457371,-3.74217 -7.794249,-5.3115 -12.894364,-8.8422 -15.336895,-10.61742 -6.4624536,-4.69688 -9.6694785,-7.69625 -10.83263281,-10.13121 -0.35804893,-0.74954 -0.45945632,-1.17203 -0.46333851,-1.93038 -0.0038659,-0.75517 0.06741948,-1.05548 0.42831,-1.80434 0.2411438,-0.50039 0.28722705,-0.55971 0.93701662,-1.20618 2.5404804,-2.5275 9.8338697,-7.96411 20.6815077,-15.41635 6.460679,-4.43843 10.789874,-7.26185 10.926394,-7.126 0.158982,0.15822 0.310751,2.53556 0.426605,6.68247 0.236906,8.47987 0.263454,27.96088 0.04798,35.2097 -0.188901,6.35497 -0.512601,9.50691 -1.035706,10.08494 -0.102689,0.11347 -0.172311,0.11281 -0.321873,-0.003 z m 0.02999,-0.62162 c 0.502002,-2.16652 0.579332,-2.65064 0.674507,-4.22266 0.484751,-8.00667 0.469618,-34.75053 -0.02436,-43.05357 -0.07957,-1.33747 -0.140312,-1.95726 -0.230195,-2.34888 l -0.05596,-0.24381 -0.202355,0.0271 c -1.832814,0.24583 -20.788695,13.14702 -27.2259038,18.52969 -2.3656948,1.97814 -3.9644941,3.82412 -4.41311899,5.09538 -0.32918282,0.93281 -0.0105768,1.8391 1.16096809,3.30245 2.4761266,3.09287 8.4917797,7.9642 17.9625387,14.54563 3.870571,2.68974 12.258241,8.47546 12.291115,8.47827 0.02015,0.002 0.04839,-0.0476 0.06276,-0.10964 z"
       id="path11"
       transform="scale(0.75)" />
    <path
       style="fill:#555555;fill-opacity:1;stroke-width:0.0501206"
       d="m 32.077165,272.03741 c -0.217466,-0.16804 -0.226184,-0.17402 -6.991819,-4.79484 -6.431315,-4.39248 -10.873849,-7.46759 -13.117192,-9.07968 -6.4443679,-4.63099 -9.9129826,-7.7779 -11.23319196,-10.19137 -0.51919256,-0.94913 -0.69060958,-1.62249 -0.6443339,-2.53108 0.0310373,-0.6094 0.11010209,-0.89891 0.42145178,-1.54323 0.1765892,-0.36544 0.31338588,-0.55924 0.63344338,-0.89741 2.0445651,-2.16025 8.4496179,-7.02396 17.8501727,-13.55462 8.001024,-5.5584 13.864192,-9.42673 14.032635,-9.25828 0.03984,0.0398 0.121437,0.67496 0.172932,1.34602 0.166612,2.17123 0.301727,6.85756 0.358375,12.4299 0.04852,4.7727 0.01546,24.72593 -0.04455,26.88969 -0.171622,6.18821 -0.423347,9.43969 -0.829927,10.72002 -0.186708,0.58795 -0.318403,0.68865 -0.608,0.46488 z m 0.188423,-0.83909 c 0.392565,-1.64545 0.549145,-2.74949 0.635615,-4.4817 0.230491,-4.61726 0.278651,-8.16611 0.278189,-20.49932 -4.57e-4,-12.18945 -0.05176,-16.06231 -0.277194,-20.92533 -0.09274,-2.00059 -0.245105,-3.57173 -0.357248,-3.68387 -0.04814,-0.0481 -0.507651,0.0999 -0.928625,0.29915 -3.817189,1.80679 -20.471364,13.24136 -26.2033033,17.9909 -2.4317749,2.01499 -4.1041404,3.87109 -4.65496305,5.16638 -0.28204912,0.66326 -0.23822082,1.37225 0.12991021,2.10152 0.75534874,1.49633 3.16809814,3.97719 6.68023734,6.8688 3.7982898,3.1272 7.3114098,5.69608 16.2140048,11.85609 6.035399,4.17609 8.288406,5.71462 8.342205,5.69669 0.02886,-0.01 0.09238,-0.18481 0.141172,-0.38931 z"
       id="path13"
       transform="scale(0.75)" />
    <path
       style="fill:#555555;fill-opacity:1;stroke-width:0.0501206"
       d="m 31.651141,271.7435 c -0.317013,-0.22242 -2.245402,-1.54458 -4.285309,-2.93813 -7.270902,-4.96708 -8.46605,-5.78842 -11.83489,-8.13334 -3.966702,-2.76106 -6.2755536,-4.45237 -8.3941667,-6.14899 -2.7500276,-2.20227 -4.2319264,-3.6068 -5.5639533,-5.27344 -0.5565543,-0.69637 -1.1306346,-1.73672 -1.35520371,-2.45591 -0.10119849,-0.32409 -0.11736092,-0.47953 -0.11725946,-1.12771 1.3228e-4,-0.845 0.0269565,-0.96036 0.412287,-1.773 0.1835091,-0.38701 0.29936005,-0.54945 0.65700377,-0.92119 2.1231226,-2.2068 8.4089198,-6.98477 17.5269094,-13.32257 1.87771,-1.30518 2.376708,-1.64986 4.759868,-3.28788 1.87329,-1.28757 6.920184,-4.6463 7.89399,-5.25349 0.949056,-0.59176 1.629515,-0.96892 1.671964,-0.92674 0.08305,0.0825 0.200165,1.36129 0.282171,3.08097 0.223458,4.68596 0.274731,8.92531 0.275513,22.7798 7.29e-4,12.89825 -0.01868,14.70403 -0.201459,18.7451 -0.229239,5.06821 -0.566326,7.38577 -1.071136,7.36432 -0.04397,-0.002 -0.339317,-0.18537 -0.656329,-0.4078 z m 0.738457,-1.12124 c 0.38169,-1.70621 0.461027,-2.48329 0.588083,-5.7601 0.168389,-4.3428 0.201209,-7.39083 0.20049,-18.6198 -7.76e-4,-12.12998 -0.0528,-16.06776 -0.276134,-20.90027 -0.09086,-1.96601 -0.248744,-3.62565 -0.355029,-3.73194 -0.01181,-0.0118 -0.122358,8.1e-4 -0.245659,0.0281 -2.249097,0.4968 -22.269958,14.20145 -27.740377,18.98879 -1.7861444,1.56312 -3.144666,3.11163 -3.67779391,4.19214 -0.26703093,0.54121 -0.32401431,0.78868 -0.29622992,1.2865 0.0572624,1.026 0.89662903,2.25228 2.94353543,4.3004 2.7845575,2.78621 7.1497874,6.2644 13.6859324,10.90488 1.954789,1.38784 9.21407,6.42016 12.931107,8.96417 0.840773,0.57545 1.618895,1.10865 1.72916,1.1849 0.110265,0.0763 0.223037,0.13238 0.250603,0.12473 0.02757,-0.008 0.145607,-0.44075 0.262312,-0.96245 z"
       id="path15"
       transform="scale(0.75)" />
    <path
       style="fill:#555555;fill-opacity:1;stroke-width:0.0501206"
       d="M 31.400538,271.01877 C 27.745672,268.50886 20.231301,263.308 18.569672,262.13824 11.843473,257.40312 7.6337378,254.13167 4.5211239,251.22087 c -2.021758,-1.89067 -3.2622292,-3.38455 -3.6969833,-4.45224 -0.16984512,-0.41711 -0.17233368,-1.16592 -0.005276,-1.58747 0.5821943,-1.46908 2.6795343,-3.65767 6.0076726,-6.26905 5.7094978,-4.47989 16.7642978,-12.14212 22.6192978,-15.67776 1.227095,-0.741 2.700158,-1.50094 2.909413,-1.50094 0.177902,0 0.198396,0.11128 0.03427,0.18606 -0.199548,0.0909 -3.885062,2.31488 -4.873322,2.94073 -5.291141,3.35076 -16.915643,11.59884 -21.4014837,15.18527 -1.0791074,0.86275 -1.6547186,1.37548 -2.4921946,2.21997 -1.8740588,1.88974 -2.5301745,3.16057 -2.2211603,4.30216 0.461148,1.70362 3.5808265,4.77339 9.4748096,9.32324 6.575966,5.0763 16.332219,11.89287 19.794831,13.83039 1.020341,0.57094 1.263459,0.63827 1.334831,0.36966 0.09103,-0.3426 0.212652,-2.20357 0.295853,-4.52705 0.166159,-4.64017 0.227525,-11.4478 0.281928,-31.27523 0.01679,-6.11972 0.0394,-11.13617 0.05024,-11.14765 0.0465,-0.0493 0.061,0.0679 0.114251,0.92305 0.268174,4.3066 0.379522,12.72332 0.341149,25.78704 -0.01502,5.11355 -0.05109,10.18825 -0.08015,11.27712 -0.100628,3.76989 -0.197805,6.01922 -0.309356,7.16057 -0.08304,0.84961 -0.551767,3.16755 -0.63947,3.16227 -0.01827,-10e-4 -0.315146,-0.1956 -0.659725,-0.43224 z"
       id="path17"
       transform="scale(0.75)" />
    <path
       style="fill:#555555;fill-opacity:1;stroke-width:0.0501206"
       d="M 31.324608,269.98329 C 29.349624,269.02059 23.658999,265.19854 16.915693,260.3057 6.9055982,253.04252 2.1239553,248.78598 1.4591319,246.54652 c -0.2517695,-0.84809 0.1066222,-1.78723 1.2062963,-3.16103 0.432073,-0.53978 1.5729039,-1.68194 2.3215686,-2.32429 3.045778,-2.61323 12.7181742,-9.59643 20.2236502,-14.60091 2.179762,-1.45342 3.360052,-2.19719 5.387962,-3.39529 0.923471,-0.5456 1.729867,-1.02387 1.791992,-1.06283 l 0.112953,-0.0708 -0.0086,13.47118 c -0.0048,7.40914 -0.02508,15.55744 -0.04517,18.10733 -0.05975,7.5836 -0.212209,13.54251 -0.402011,15.7128 -0.06604,0.7551 -0.105747,0.94799 -0.198847,0.96592 -0.04066,0.008 -0.276588,-0.0845 -0.524273,-0.20528 z"
       id="path19"
       transform="scale(0.75)" />
    <path
       style="fill:#555555;fill-opacity:1;stroke-width:0.0501206"
       d="M 31.2739,269.95816 C 28.704632,268.69953 2.9098439,251.5351 1.4517351,246.51939 c -0.4513912,-1.55273 1.2890929,-3.77264 5.5651448,-7.09808 4.2316291,-3.29089 12.1294671,-8.92048 18.0684661,-12.87923 2.275149,-1.51655 3.432733,-2.24716 5.513263,-3.47971 0.923471,-0.54709 1.729867,-1.02745 1.79199,-1.06747 l 0.112953,-0.0728 -0.0086,13.57603 c -0.0048,7.46681 -0.02503,15.62846 -0.04506,18.137 -0.06025,7.54552 -0.211145,13.39154 -0.402347,15.5875 -0.0658,0.7557 -0.105449,0.94798 -0.199203,0.96603 -0.04099,0.008 -0.299465,-0.0958 -0.574393,-0.23052 z"
       id="path21"
       transform="scale(0.75)" />
  </g>
</svg>
